<?xml version="1.0" encoding="UTF-8"?>
<svg xmlns="http://www.w3.org/2000/svg" xmlns:xlink="http://www.w3.org/1999/xlink" width="50pt" height="50pt" viewBox="0 0 50 50" version="1.1">
<g id="surface1">
<path style=" stroke:none;fill-rule:nonzero;fill:rgb(0%,0%,0%);fill-opacity:1;" d="M 44.363281 17.894531 L 43.160156 17.894531 L 43.160156 12.097656 C 43.160156 12.0625 43.15625 12.027344 43.148438 11.988281 C 43.148438 11.757812 43.074219 11.53125 42.917969 11.355469 L 33.273438 0.335938 C 33.269531 0.332031 33.265625 0.332031 33.265625 0.328125 C 33.207031 0.265625 33.140625 0.210938 33.066406 0.164062 C 33.046875 0.152344 33.027344 0.140625 33.003906 0.125 C 32.941406 0.09375 32.878906 0.0664062 32.8125 0.046875 C 32.792969 0.0390625 32.777344 0.03125 32.757812 0.0273438 C 32.683594 0.0117188 32.609375 0 32.53125 0 L 8.828125 0 C 7.746094 0 6.867188 0.878906 6.867188 1.960938 L 6.867188 17.894531 L 5.664062 17.894531 C 4.117188 17.894531 2.859375 19.148438 2.859375 20.699219 L 2.859375 35.277344 C 2.859375 36.828125 4.117188 38.082031 5.664062 38.082031 L 6.867188 38.082031 L 6.867188 48.066406 C 6.867188 49.144531 7.746094 50.027344 8.828125 50.027344 L 41.199219 50.027344 C 42.28125 50.027344 43.160156 49.144531 43.160156 48.066406 L 43.160156 38.082031 L 44.359375 38.082031 C 45.910156 38.082031 47.164062 36.828125 47.164062 35.277344 L 47.164062 20.699219 C 47.164062 19.148438 45.910156 17.894531 44.363281 17.894531 Z M 8.828125 1.960938 L 31.550781 1.960938 L 31.550781 12 C 31.550781 12.542969 31.992188 12.980469 32.53125 12.980469 L 41.199219 12.980469 L 41.199219 17.894531 L 8.828125 17.894531 Z M 33.535156 30.644531 C 34.25 30.644531 35.046875 30.488281 35.511719 30.300781 L 35.871094 32.152344 C 35.433594 32.367188 34.453125 32.605469 33.179688 32.605469 C 29.550781 32.605469 27.683594 30.347656 27.683594 27.359375 C 27.683594 23.78125 30.238281 21.789062 33.410156 21.789062 C 34.640625 21.789062 35.574219 22.039062 35.996094 22.257812 L 35.511719 24.140625 C 35.03125 23.9375 34.363281 23.75 33.519531 23.75 C 31.636719 23.75 30.175781 24.886719 30.175781 27.21875 C 30.175781 29.320312 31.417969 30.644531 33.535156 30.644531 Z M 26.609375 27.097656 C 26.609375 30.535156 24.523438 32.621094 21.460938 32.621094 C 18.347656 32.621094 16.527344 30.269531 16.527344 27.28125 C 16.527344 24.140625 18.535156 21.789062 21.632812 21.789062 C 24.851562 21.789062 26.609375 24.203125 26.609375 27.097656 Z M 6.179688 32.402344 L 6.179688 22.101562 C 7.050781 21.960938 8.1875 21.882812 9.382812 21.882812 C 11.375 21.882812 12.667969 22.242188 13.675781 23.003906 C 14.765625 23.8125 15.453125 25.105469 15.453125 26.957031 C 15.453125 28.960938 14.722656 30.347656 13.710938 31.203125 C 12.605469 32.121094 10.925781 32.558594 8.871094 32.558594 C 7.640625 32.558594 6.769531 32.480469 6.179688 32.402344 Z M 41.199219 47.535156 L 8.828125 47.535156 L 8.828125 38.082031 L 41.199219 38.082031 Z M 42.996094 32.449219 L 42.046875 30.550781 C 41.65625 29.820312 41.410156 29.273438 41.113281 28.667969 L 41.082031 28.667969 C 40.863281 29.273438 40.601562 29.820312 40.273438 30.550781 L 39.402344 32.449219 L 36.695312 32.449219 L 39.730469 27.140625 L 36.804688 21.960938 L 39.527344 21.960938 L 40.445312 23.875 C 40.757812 24.511719 40.988281 25.027344 41.238281 25.617188 L 41.269531 25.617188 C 41.519531 24.949219 41.722656 24.480469 41.984375 23.875 L 42.871094 21.960938 L 45.582031 21.960938 L 42.625 27.078125 L 45.734375 32.449219 Z M 42.996094 32.449219 "/>
<path style=" stroke:none;fill-rule:nonzero;fill:rgb(0%,0%,0%);fill-opacity:1;" d="M 12.929688 27.03125 C 12.945312 24.855469 11.671875 23.703125 9.632812 23.703125 C 9.101562 23.703125 8.761719 23.75 8.558594 23.796875 L 8.558594 30.65625 C 8.761719 30.703125 9.089844 30.703125 9.382812 30.703125 C 11.53125 30.71875 12.929688 29.539062 12.929688 27.03125 Z M 12.929688 27.03125 "/>
<path style=" stroke:none;fill-rule:nonzero;fill:rgb(0%,0%,0%);fill-opacity:1;" d="M 19.035156 27.234375 C 19.035156 29.289062 20 30.734375 21.585938 30.734375 C 23.1875 30.734375 24.105469 29.210938 24.105469 27.171875 C 24.105469 25.289062 23.203125 23.671875 21.566406 23.671875 C 19.964844 23.671875 19.035156 25.195312 19.035156 27.234375 Z M 19.035156 27.234375 "/>
</g>
</svg>
